<?xml version="1.0" standalone="no"?><!DOCTYPE svg PUBLIC "-//W3C//DTD SVG 1.1//EN" "http://www.w3.org/Graphics/SVG/1.1/DTD/svg11.dtd"><svg t="1660714859268" class="icon" viewBox="0 0 1024 1024" version="1.1" xmlns="http://www.w3.org/2000/svg" p-id="1374" xmlns:xlink="http://www.w3.org/1999/xlink" width="200" height="200"><defs><style type="text/css">@font-face { font-family: feedback-iconfont; src: url("//at.alicdn.com/t/font_1031158_u69w8yhxdu.woff2?t=1630033759944") format("woff2"), url("//at.alicdn.com/t/font_1031158_u69w8yhxdu.woff?t=1630033759944") format("woff"), url("//at.alicdn.com/t/font_1031158_u69w8yhxdu.ttf?t=1630033759944") format("truetype"); }
</style></defs><path d="M771.068 205.745c-1.405 0-2.78 0.105-4.13 0.302L255.414 206.047c-1.347-0.197-2.722-0.302-4.125-0.302-15.862 0-28.72 12.862-28.72 28.725s12.857 28.722 28.72 28.722l0 0.297 519.779 0 0-0.297c15.865 0 28.72-12.86 28.72-28.722S786.933 205.745 771.068 205.745zM771.068 429.009c-1.405 0-2.78 0.105-4.13 0.297L255.414 429.306c-1.347-0.193-2.722-0.297-4.125-0.297-15.862 0-28.72 12.857-28.72 28.72 0 15.865 12.857 28.722 28.72 28.722l0 0.297 519.779 0 0-0.297c15.865 0 28.72-12.857 28.72-28.722C799.788 441.866 786.933 429.009 771.068 429.009zM498.219 646.043c-1.402 0-2.777 0.105-4.125 0.295L254.754 646.338c-1.345-0.19-2.722-0.295-4.122-0.295-15.865 0-28.722 12.855-28.722 28.72 0 15.86 12.857 28.725 28.722 28.725l0 0.29 247.587 0 0-0.29c15.865 0 28.73-12.865 28.73-28.725C526.949 658.898 514.084 646.043 498.219 646.043zM944.318 92.895c0-44.557-36.245-80.81-80.81-80.81L159.3 12.085c-44.562 0-80.81 36.252-80.81 80.81l0 845.153c0 44.55 36.252 80.805 80.81 80.805l464.214 0c7.74 0.33 15.6-2.43 21.51-8.35l0.215 0.21 290.589-290.594-0.21-0.21c5.575-5.58 8.385-12.89 8.405-20.2l0.295 0L944.318 350.954l0.065 0 0-57.447-0.065 0L944.318 92.895zM624.868 949.848 624.868 711.893l237.944 0L624.868 949.848zM888.218 655.583c-2.2-0.535-4.495-0.83-6.86-0.83l0-0.305L595.839 654.448c-15.855 0-28.72 12.865-28.72 28.725 0 0.045 0.01 0.08 0.01 0.13 0 0.055-0.01 0.115-0.01 0.175 0 1.4 0.105 2.77 0.3 4.12l0 273.954L147.332 961.552c-6.365 0-11.545-5.175-11.545-11.54L135.787 80.925c0-6.365 5.18-11.542 11.545-11.542l729.341 0c6.37 0 11.545 5.18 11.545 11.542" p-id="1375"></path></svg>